
<svg width="265" height="220" viewBox="0 0 265 220" fill="none" xmlns="http://www.w3.org/2000/svg">
<g clip-path="url(#clip0_777_1293)">
<path d="M240.46 0.144531H0.102539V162.55H240.46V0.144531Z" fill="#E6E6E6"/>
<path d="M233.586 20.5137H6.9751V152.942H233.586V20.5137Z" fill="white"/>
<path d="M240.357 0H0V10.7731H240.357V0Z" fill="#4564EF"/>
<path d="M7.58838 7.50514C8.63362 7.50514 9.48096 6.61119 9.48096 5.50843C9.48096 4.40568 8.63362 3.51172 7.58838 3.51172C6.54314 3.51172 5.6958 4.40568 5.6958 5.50843C5.6958 6.61119 6.54314 7.50514 7.58838 7.50514Z" fill="white"/>
<path d="M14.7715 7.50514C15.8167 7.50514 16.6641 6.61119 16.6641 5.50843C16.6641 4.40568 15.8167 3.51172 14.7715 3.51172C13.7262 3.51172 12.8789 4.40568 12.8789 5.50843C12.8789 6.61119 13.7262 7.50514 14.7715 7.50514Z" fill="white"/>
<path d="M21.9556 7.50514C23.0008 7.50514 23.8481 6.61119 23.8481 5.50843C23.8481 4.40568 23.0008 3.51172 21.9556 3.51172C20.9103 3.51172 20.063 4.40568 20.063 5.50843C20.063 6.61119 20.9103 7.50514 21.9556 7.50514Z" fill="white"/>
<path d="M85.7948 34.2539H27.5664V139.201H85.7948V34.2539Z" fill="#E6E6E6"/>
<path d="M144.369 34.2539H95.8457V63.1417H144.369V34.2539Z" fill="#4564EF"/>
<path d="M144.369 71.1855H95.8457V102.267H144.369V71.1855Z" fill="#E6E6E6"/>
<path d="M144.369 110.312H95.8457V139.2H144.369V110.312Z" fill="#E6E6E6"/>
<path d="M212.996 34.2539H154.768V79.9892H212.996V34.2539Z" fill="#E6E6E6"/>
<path d="M212.996 93.4648H154.768V139.2H212.996V93.4648Z" fill="#E6E6E6"/>
<path d="M190.565 83.2744V73.4282C190.565 69.929 191.883 66.5731 194.228 64.0988C196.573 61.6244 199.754 60.2344 203.071 60.2344C206.387 60.2344 209.568 61.6244 211.914 64.0988C214.259 66.5731 215.576 69.929 215.576 73.4282V83.2744C215.576 83.7443 215.399 84.1947 215.084 84.527C214.769 84.8593 214.342 85.0462 213.897 85.0467H192.245C191.799 85.0462 191.372 84.8593 191.058 84.527C190.743 84.1947 190.565 83.7443 190.565 83.2744Z" fill="#2F2E41"/>
<path d="M221.562 211.412L217.151 212.7L210.343 195.364L216.853 193.463L221.562 211.412Z" fill="#FFB8B8"/>
<path d="M213.651 212.29L222.158 209.806L223.64 215.457L209.778 219.504C209.583 218.762 209.529 217.987 209.618 217.223C209.707 216.459 209.939 215.72 210.298 215.051C210.658 214.381 211.139 213.792 211.715 213.318C212.29 212.845 212.948 212.495 213.651 212.29Z" fill="#2F2E41"/>
<path d="M175.576 214.991H171L168.822 196.367H175.577L175.576 214.991Z" fill="#FFB8B8"/>
<path d="M167.731 213.611H176.557V219.474H162.173C162.173 218.705 162.317 217.942 162.596 217.231C162.876 216.519 163.285 215.873 163.801 215.329C164.317 214.784 164.93 214.352 165.604 214.058C166.278 213.763 167.001 213.611 167.731 213.611Z" fill="#2F2E41"/>
<path d="M170.057 110.906C170.384 111.371 170.803 111.755 171.286 112.031C171.769 112.307 172.303 112.467 172.85 112.502C173.398 112.536 173.947 112.444 174.457 112.23C174.967 112.017 175.427 111.688 175.803 111.267L187.969 117.04L186.863 109.821L175.479 105.445C174.767 104.824 173.864 104.501 172.94 104.536C172.017 104.571 171.138 104.962 170.469 105.635C169.801 106.308 169.39 107.216 169.314 108.188C169.238 109.159 169.503 110.127 170.057 110.906H170.057Z" fill="#FFB8B8"/>
<path d="M195.335 154.323C191.513 154.323 187.556 153.722 184.23 151.936C182.464 151.006 180.9 149.702 179.634 148.105C178.368 146.508 177.428 144.653 176.873 142.655C175.14 136.866 177.325 131.178 179.438 125.678C180.747 122.27 181.984 119.051 182.305 115.878L182.417 114.751C182.917 109.691 183.348 105.321 185.738 103.682C186.977 102.832 188.643 102.784 190.83 103.534L211.379 110.576L210.623 151.729L210.499 151.773C210.391 151.811 203.147 154.323 195.335 154.323Z" fill="#2F2E41"/>
<path d="M190.471 90.7226C190.471 90.7226 200.55 87.5719 208.39 88.7534C208.39 88.7534 203.91 114.747 205.403 123.412C206.897 132.076 179.459 126.76 185.058 118.489L186.925 108.643C186.925 108.643 183.192 104.704 186.551 99.978L190.471 90.7226Z" fill="#4564EF"/>
<path d="M185.514 153.542L173.091 151.085L177.428 115.872C177.72 114.889 184.438 92.5791 187.489 91.372C189.705 90.5488 191.971 89.8848 194.271 89.3843L194.713 89.291L192.222 93.2329L182.305 118.303L185.514 153.542Z" fill="#2F2E41"/>
<path d="M179.041 210.676L162.991 207.853L171.998 169.05L185.401 115.984L185.533 116.927C185.544 116.997 186.796 123.929 205.374 120.853L205.538 120.826L205.583 120.994L228.038 204.701L209.75 207.917L193.069 146.845L179.041 210.676Z" fill="#2F2E41"/>
<path d="M201.287 160.133L201.297 159.835C201.308 159.504 202.413 126.605 202.044 113.374C201.674 100.098 205.748 88.6007 205.789 88.4861L205.822 88.3937L205.912 88.3664C211.183 86.7778 215.756 91.5193 215.801 91.5674L215.866 91.6351L214.364 104.701L220.791 152.216L201.287 160.133Z" fill="#2F2E41"/>
<path d="M200.5 84.8172C205.564 84.8172 209.669 80.4864 209.669 75.144C209.669 69.8016 205.564 65.4707 200.5 65.4707C195.436 65.4707 191.331 69.8016 191.331 75.144C191.331 80.4864 195.436 84.8172 200.5 84.8172Z" fill="#FFB8B8"/>
<path d="M187.606 74.2162C187.609 71.4491 188.652 68.7963 190.507 66.8397C192.361 64.883 194.876 63.7824 197.499 63.7793H199.365C201.988 63.7824 204.502 64.883 206.357 66.8397C208.212 68.7963 209.255 71.4491 209.258 74.2162V74.4131H205.313L203.968 70.4385L203.699 74.4131H201.66L200.981 72.4078L200.845 74.4131H187.606V74.2162Z" fill="#2F2E41"/>
<path d="M199.598 86.1538C199.413 85.8892 199.302 85.5749 199.279 85.2469C199.256 84.9189 199.321 84.5907 199.467 84.3C201.445 80.3307 204.214 72.9965 200.538 68.4734L200.274 68.1484H210.946V85.0523L201.251 86.8569C201.153 86.8752 201.053 86.8845 200.954 86.8846C200.689 86.8846 200.428 86.8183 200.193 86.6913C199.957 86.5643 199.753 86.3801 199.598 86.1538Z" fill="#2F2E41"/>
<path d="M156.631 16.3637C149.163 9.71574 140.025 5.501 130.329 4.23238C120.632 2.96376 110.795 4.69596 102.014 9.2182C93.2338 13.7404 85.8884 20.8577 80.872 29.704C75.8556 38.5503 73.3844 48.7441 73.7593 59.0451C74.1341 69.3461 77.3388 79.3101 82.9832 87.7245C88.6277 96.139 96.4687 102.641 105.552 106.44C114.635 110.239 124.569 111.17 134.145 109.121C143.721 107.072 152.526 102.13 159.489 94.8977L221.315 149.937C222.256 150.776 223.474 151.186 224.701 151.078C225.929 150.969 227.065 150.351 227.861 149.359C228.656 148.366 229.045 147.081 228.942 145.786C228.839 144.491 228.253 143.292 227.312 142.453L227.306 142.447L165.479 87.4074C172.662 76.5322 175.736 63.2192 174.099 50.0773C172.462 36.9355 166.233 24.9123 156.631 16.3637ZM152.645 82.1075C147.829 88.1298 141.428 92.51 134.252 94.6942C127.076 96.8783 119.447 96.7684 112.33 94.3783C105.213 91.9882 98.9277 87.4252 94.2689 81.2664C89.61 75.1076 86.7869 67.6296 86.1564 59.778C85.5259 51.9264 87.1164 44.0539 90.7268 37.1559C94.3371 30.258 99.8052 24.6445 106.44 21.0253C113.074 17.4061 120.576 15.9437 127.999 16.8231C135.421 17.7024 142.429 20.8841 148.137 25.9656H148.137C151.927 29.3396 155.05 33.4682 157.328 38.1156C159.606 42.763 160.994 47.8383 161.412 53.0515C161.831 58.2648 161.272 63.514 159.768 68.4994C158.264 73.4849 155.843 78.1089 152.645 82.1075Z" fill="#3F3D56"/>
<path opacity="0.3" d="M99.432 86.8634C92.1876 80.4137 87.5072 71.3255 86.32 61.4035C85.1329 51.4815 87.526 41.4514 93.024 33.3047C92.3019 34.0718 91.6039 34.8753 90.93 35.715C87.7319 39.7136 85.3117 44.3377 83.8074 49.3231C82.3032 54.3085 81.7445 59.5578 82.1631 64.771C82.5817 69.9843 83.9696 75.0595 86.2473 79.7069C88.525 84.3543 91.6481 88.4829 95.4382 91.8569C99.2283 95.231 103.611 97.7844 108.337 99.3713C113.062 100.958 118.037 101.548 122.979 101.106C127.92 100.664 132.731 99.2003 137.136 96.7973C141.541 94.3942 145.454 91.0993 148.652 87.1006C149.325 86.2598 149.958 85.3988 150.552 84.5174C143.865 91.6058 134.896 95.7819 125.426 96.2165C115.956 96.6511 106.677 93.3124 99.432 86.8634Z" fill="black"/>
<path d="M203.444 127.818C203.977 127.955 204.532 127.968 205.07 127.854C205.608 127.741 206.116 127.505 206.559 127.162C207.001 126.819 207.366 126.378 207.629 125.87C207.893 125.361 208.047 124.799 208.082 124.221L220.936 120.457L215.711 115.65L204.305 119.962C203.381 119.965 202.49 120.325 201.801 120.975C201.112 121.624 200.673 122.518 200.567 123.486C200.461 124.454 200.695 125.43 201.225 126.229C201.755 127.027 202.545 127.592 203.444 127.818Z" fill="#FFB8B8"/>
<path d="M208.787 125.824L208.004 117.984L218.742 111.734L211.741 102.794L212.883 92.751L215.728 91.4648L215.816 91.5848C217.158 93.4045 228.921 109.418 228.921 111.398C228.921 113.431 226.671 119.402 223.592 121.027C220.622 122.593 209.47 125.638 208.996 125.767L208.787 125.824Z" fill="#2F2E41"/>
<path d="M264.5 220.001H122.27C122.171 220.001 122.076 219.959 122.006 219.885C121.936 219.811 121.897 219.711 121.897 219.607C121.897 219.502 121.936 219.402 122.006 219.328C122.076 219.254 122.171 219.213 122.27 219.213H264.5C264.599 219.213 264.694 219.254 264.764 219.328C264.834 219.402 264.873 219.502 264.873 219.607C264.873 219.711 264.834 219.811 264.764 219.885C264.694 219.959 264.599 220.001 264.5 220.001Z" fill="#CCCCCC"/>
</g>
<defs>
<clipPath id="clip0_777_1293">
<rect width="264.873" height="220" fill="white"/>
</clipPath>
</defs>
</svg>