<svg width="95" height="25" viewBox="0 0 95 25" fill="none" xmlns="http://www.w3.org/2000/svg">
<g filter="url(#filter0_d_1_91)">
<path d="M16.6843 15H18.2211L12.8972 2H11.1409L6 15H7.4819L8.92721 11.2507H15.1841L16.6843 15ZM9.43947 9.95073L10.6103 6.91739C11.1592 5.52319 11.7446 3.95942 12.0374 3.18696C12.3301 3.97826 12.8972 5.52319 13.4644 6.93623L14.6718 9.95073H9.43947Z" fill="white"/>
<path d="M23.3703 15H24.779V2H23.3703V15Z" fill="white"/>
<path d="M35.0914 15H36.8477L41.8057 2H40.3421L37.3966 9.96956C36.866 11.4203 36.2989 13.0406 36.0061 13.8507C35.7134 13.0406 35.128 11.4203 34.5608 9.95073L31.5056 2H29.9688L35.0914 15Z" fill="white"/>
<path d="M55.3819 15H56.9187L51.5948 2H49.8385L44.6976 15H46.1795L47.6248 11.2507H53.8817L55.3819 15ZM48.137 9.95073L49.3079 6.91739C49.8568 5.52319 50.4422 3.95942 50.7349 3.18696C51.0277 3.97826 51.5948 5.52319 52.1619 6.93623L53.3694 9.95073H48.137Z" fill="white"/>
<path d="M71.8923 13.1725L71.4349 11.3072C71.0324 9.74348 70.3555 9.02754 69.6054 8.72609C70.9958 8.21739 71.9655 7.12464 71.9655 5.56087C71.9655 3.22464 70.5933 2 67.6295 2H62.0678V15H63.4766V9.34783H67.1539C68.526 9.34783 69.5871 9.7058 69.953 11.2507L70.4836 13.4174C70.5933 13.8696 70.7946 14.5101 71.1422 15H72.5875V14.8681C72.2948 14.3783 72.0569 13.8319 71.8923 13.1725ZM63.4766 8.02899V3.3H67.4649C69.5871 3.3 70.5202 3.97826 70.5202 5.63623C70.5202 7.31304 69.331 8.02899 67.593 8.02899H63.4766Z" fill="white"/>
<path d="M87.4632 15H89L83.6761 2H81.9198L76.7789 15H78.2608L79.7061 11.2507H85.963L87.4632 15ZM80.2184 9.95073L81.3893 6.91739C81.9381 5.52319 82.5236 3.95942 82.8163 3.18696C83.109 3.97826 83.6761 5.52319 84.2433 6.93623L85.4508 9.95073H80.2184Z" fill="white"/>
<path d="M34.751 15.5L34.6262 15.1833L29.5036 2.18331L29.2343 1.5H29.9688H31.5056H31.8491L31.9723 1.82065L35.0273 9.7707L34.751 15.5ZM34.751 15.5H35.0914M34.751 15.5H35.0914M35.0914 15.5H36.8477H37.1922M35.0914 15.5H37.1922M37.1922 15.5L37.3149 15.1782M37.1922 15.5L37.3149 15.1782M37.3149 15.1782L42.2728 2.17817L42.5315 1.5M37.3149 15.1782L42.5315 1.5M42.5315 1.5H41.8057M42.5315 1.5H41.8057M41.8057 1.5H40.3421H39.9938M41.8057 1.5H39.9938M39.9938 1.5L39.8731 1.82666M39.9938 1.5L39.8731 1.82666M39.8731 1.82666L36.9276 9.79623L36.927 9.79783M39.8731 1.82666L36.927 9.79783M36.927 9.79783C36.6108 10.6624 36.2792 11.5938 36.0019 12.3742M36.927 9.79783L36.0019 12.3742M36.0019 12.3742C35.7154 11.5909 35.3683 10.6543 35.0276 9.77137L36.0019 12.3742ZM63.9766 9.84783V15V15.5H63.4766H62.0678H61.5678V15V2V1.5H62.0678H67.6295C69.1675 1.5 70.3887 1.81574 71.2302 2.52119C72.089 3.24118 72.4655 4.29241 72.4655 5.56087C72.4655 7.02138 71.7257 8.11843 70.632 8.78592C71.1835 9.28067 71.6274 10.0494 71.9191 11.1826L71.9205 11.1882L72.3774 13.0513C72.3774 13.0514 72.3774 13.0514 72.3774 13.0515C72.5298 13.6615 72.7482 14.1624 73.0167 14.6116L73.0875 14.7301V14.8681V15V15.5H72.5875H71.1422H70.8839L70.7344 15.2894C70.3309 14.7208 70.1119 14.0055 69.9979 13.5363L63.9766 9.84783ZM63.9766 9.84783H67.1539C67.8089 9.84783 68.3101 9.93588 68.6781 10.1514C69.0219 10.3528 69.309 10.701 69.4665 11.366L69.4674 11.3696L69.9977 13.5353L63.9766 9.84783ZM16.2201 15.1857L16.3458 15.5H16.6843H18.2211H18.9662L18.6838 14.8105L13.3599 1.81051L13.2328 1.5H12.8972H11.1409H10.801L10.6759 1.81613L5.53504 14.8161L5.2646 15.5H6H7.4819H7.82502L7.94843 15.1798L9.27032 11.7507H14.8456L16.2201 15.1857ZM22.8703 15V15.5H23.3703H24.779H25.279V15V2V1.5H24.779H23.3703H22.8703V2V15ZM54.9177 15.1857L55.0434 15.5H55.3819H56.9187H57.6637L57.3814 14.8105L52.0575 1.81051L51.9303 1.5H51.5948H49.8385H49.4985L49.3735 1.81613L44.2326 14.8161L43.9622 15.5H44.6976H46.1795H46.5226L46.646 15.1798L47.9679 11.7507H53.5432L54.9177 15.1857ZM86.999 15.1857L87.1247 15.5H87.4632H89H89.7451L89.4627 14.8105L84.1388 1.81051L84.0117 1.5H83.6761H81.9198H81.5799L81.4549 1.81613L76.3139 14.8161L76.0435 15.5H76.7789H78.2608H78.6039L78.7274 15.1798L80.0492 11.7507H85.6245L86.999 15.1857ZM10.1684 9.45073L11.0756 7.10054C11.0758 7.10002 11.076 7.0995 11.0762 7.09898C11.4057 6.26186 11.7484 5.36378 12.033 4.61273C12.3151 5.36736 12.6576 6.26862 13.0004 7.12247L13.9329 9.45073H10.1684ZM51.6979 7.12247L52.6305 9.45073H48.866L49.7732 7.10054C49.7733 7.10013 49.7735 7.09972 49.7737 7.09931C50.1032 6.2621 50.446 5.36388 50.7305 4.61273C51.0127 5.36736 51.3552 6.26862 51.6979 7.12247ZM63.9766 7.52899V3.8H67.4649C68.494 3.8 69.1211 3.9688 69.4869 4.24526C69.8189 4.49621 70.0202 4.9034 70.0202 5.63623C70.0202 6.34304 69.7776 6.78254 69.407 7.06241C69.013 7.35993 68.405 7.52899 67.593 7.52899H63.9766ZM83.7793 7.12247L84.7119 9.45073H80.9473L81.8545 7.10054C81.8547 7.10013 81.8548 7.09971 81.855 7.09929C82.1846 6.26208 82.5273 5.36387 82.8119 4.61273C83.094 5.36736 83.4366 6.26862 83.7793 7.12247Z" stroke="black"/>
</g>
<defs>
<filter id="filter0_d_1_91" x="0.529297" y="0.335205" width="93.9609" height="24.4583" filterUnits="userSpaceOnUse" color-interpolation-filters="sRGB">
<feFlood flood-opacity="0" result="BackgroundImageFix"/>
<feColorMatrix in="SourceAlpha" type="matrix" values="0 0 0 0 0 0 0 0 0 0 0 0 0 0 0 0 0 0 127 0" result="hardAlpha"/>
<feOffset dy="4"/>
<feGaussianBlur stdDeviation="2"/>
<feComposite in2="hardAlpha" operator="out"/>
<feColorMatrix type="matrix" values="0 0 0 0 0 0 0 0 0 0 0 0 0 0 0 0 0 0 0.25 0"/>
<feBlend mode="normal" in2="BackgroundImageFix" result="effect1_dropShadow_1_91"/>
<feBlend mode="normal" in="SourceGraphic" in2="effect1_dropShadow_1_91" result="shape"/>
</filter>
</defs>
</svg>
