<svg width="53" height="46" viewBox="0 0 53 46" fill="none" xmlns="http://www.w3.org/2000/svg">
<g clip-path="url(#clip0_73_74)">
<path fill-rule="evenodd" clip-rule="evenodd" d="M18.3659 38.2313C18.9901 37.2326 19.3858 36.1063 19.5245 34.9343C19.6631 33.7622 19.5412 32.5738 19.1675 31.4551L16.8542 24.5213C16.7113 24.1005 16.5439 23.6887 16.3831 23.2723C16.2119 22.825 16.1241 22.3497 16.1241 21.8703C16.1181 20.8672 16.5067 19.9027 17.2047 19.1878C17.9028 18.4729 18.8534 18.0658 19.8486 18.0557C20.352 18.054 20.8508 18.1525 21.3164 18.3456C21.782 18.5387 22.2051 18.8226 22.5615 19.1809C22.821 19.4414 23.0414 19.7386 23.2158 20.0631C23.5239 20.6325 23.832 21.1884 24.1871 21.7375L26.4892 25.2167V25.2032L27.1791 26.3082L18.3659 38.2313Z" fill="#5FA5FA"/>
<path fill-rule="evenodd" clip-rule="evenodd" d="M48.9239 44.6492C46.9693 45.8891 44.6061 46.2957 42.3541 45.7796C40.1021 45.2634 38.1457 43.8667 36.9154 41.8968L27.1844 26.3189L26.4945 25.2139V25.2275L24.1856 21.7572C23.8306 21.2193 23.5158 20.6522 23.2143 20.0828C23.04 19.7583 22.8196 19.4611 22.5601 19.2006C22.2037 18.8423 21.7805 18.5584 21.315 18.3653C20.8494 18.1722 20.3506 18.0737 19.8471 18.0754C18.8555 18.0855 17.9079 18.4898 17.2104 19.2003C16.5129 19.9109 16.122 20.8702 16.1227 21.8697C16.1227 22.3492 16.2105 22.8245 16.3817 23.2718C16.5424 23.6881 16.7099 24.1 16.8528 24.5208L19.1661 31.4546C19.5398 32.5732 19.6617 33.7617 19.523 34.9337C19.3844 36.1058 18.9886 37.232 18.3645 38.2308L16.0758 41.8968C13.1417 46.0017 8.13782 47.2327 4.06725 44.6492C2.11274 43.4091 0.727002 41.4374 0.214876 39.1676C-0.297251 36.8979 0.106184 34.516 1.33643 32.546L19.0165 4.23713C19.3193 3.75244 19.6702 3.30002 20.0637 2.88684C20.0668 2.88056 20.0714 2.87515 20.0771 2.87109C20.9803 1.86994 22.1009 1.09283 23.3514 0.60046C24.602 0.108091 25.9485 -0.0861988 27.2858 0.0327706C28.6232 0.15174 29.9151 0.580746 31.0607 1.28627C32.2063 1.9918 33.1746 2.95474 33.8898 4.09985L51.657 32.5438C52.2664 33.5194 52.6791 34.6065 52.8715 35.743C53.064 36.8794 53.0324 38.043 52.7786 39.1671C52.5248 40.2913 52.0538 41.354 51.3924 42.2947C50.7309 43.2353 49.8922 44.0353 48.9239 44.6492Z" fill="#B2CCFD"/>
<path d="M26.5003 45.9999C29.571 45.9999 32.0602 43.491 32.0602 40.3962C32.0602 37.3013 29.571 34.7925 26.5003 34.7925C23.4297 34.7925 20.9404 37.3013 20.9404 40.3962C20.9404 43.491 23.4297 45.9999 26.5003 45.9999Z" fill="#B2CCFD"/>
</g>
<defs>
<clipPath id="clip0_73_74">
<rect width="53" height="46" fill="white"/>
</clipPath>
</defs>
</svg>
