<svg width="48" height="48" viewBox="0 0 48 48" fill="none" xmlns="http://www.w3.org/2000/svg">
<path d="M32.6722 15.9949V14.6608C32.6722 13.1871 31.4776 11.9924 30.0039 11.9924H11.3256C9.85188 11.9924 8.65723 13.1871 8.65723 14.6608V26.6683C8.65723 28.1419 9.85188 29.3366 11.3256 29.3366H12.6597" stroke="#3699FB"/>
<rect x="15.3281" y="18.6633" width="24.015" height="17.3442" rx="2" stroke="#3699FB"/>
<path fill-rule="evenodd" clip-rule="evenodd" d="M19.3306 32.0049L23.7013 23.2621C23.8845 22.8966 24.2584 22.6658 24.6672 22.6658C25.0814 22.6658 25.4655 22.8823 25.6799 23.2368L29.3635 29.3366L30.9378 27.2019C31.1885 26.8645 31.5848 26.6664 32.0051 26.6683C32.414 26.6683 32.7879 26.8991 32.9711 27.2646L35.3406 32.0049H19.3306Z" stroke="#3699FB"/>
</svg>
