<svg width="16" height="16" viewBox="0 0 16 16" fill="none" xmlns="http://www.w3.org/2000/svg">
<path d="M10.6667 7.99978C10.6667 9.47254 9.47279 10.6664 8.00003 10.6664C6.52727 10.6664 5.33336 9.47254 5.33336 7.99978C5.33336 6.52702 6.52727 5.33311 8.00003 5.33311C9.47279 5.33311 10.6667 6.52702 10.6667 7.99978Z" stroke="#F9F9F9"/>
<path d="M6.85632 1.24173C7.37404 0.377755 8.62601 0.377756 9.14374 1.24173L9.61424 2.02691C9.91617 2.53077 10.5123 2.77769 11.0821 2.6349L11.97 2.41239C12.947 2.16756 13.8323 3.05283 13.5874 4.02985L13.3649 4.91775C13.2221 5.48753 13.469 6.08363 13.9729 6.38557L14.7581 6.85607C15.6221 7.3738 15.6221 8.62577 14.7581 9.14349L13.9729 9.614C13.469 9.91593 13.2221 10.512 13.3649 11.0818L13.5874 11.9697C13.8323 12.9467 12.947 13.832 11.97 13.5872L11.0821 13.3647C10.5123 13.2219 9.91617 13.4688 9.61424 13.9727L9.14373 14.7578C8.62601 15.6218 7.37404 15.6218 6.85632 14.7578L6.38581 13.9727C6.08388 13.4688 5.48777 13.2219 4.91799 13.3647L4.03009 13.5872C3.05308 13.832 2.1678 12.9467 2.41264 11.9697L2.63515 11.0818C2.77793 10.512 2.53102 9.91593 2.02715 9.614L1.24198 9.14349C0.377999 8.62577 0.378 7.3738 1.24198 6.85607L2.02716 6.38557C2.53102 6.08363 2.77793 5.48753 2.63515 4.91775L2.41264 4.02984C2.1678 3.05283 3.05308 2.16756 4.03009 2.41239L4.91799 2.6349C5.48777 2.77769 6.08388 2.53077 6.38581 2.02691L6.85632 1.24173Z" stroke="#F9F9F9"/>
</svg>
