<svg width="80" height="80" viewBox="0 0 80 80" fill="none" xmlns="http://www.w3.org/2000/svg">
<g filter="url(#filter0_d_207_102)">
<rect x="21" y="11" width="38" height="38" rx="19" fill="#E0E0E0" stroke="white" stroke-width="2"/>
<path fill-rule="evenodd" clip-rule="evenodd" d="M45.294 25.2911C45.294 28.2281 42.9391 30.5831 40 30.5831C37.0619 30.5831 34.706 28.2281 34.706 25.2911C34.706 22.354 37.0619 20 40 20C42.9391 20 45.294 22.354 45.294 25.2911ZM40 40C35.6624 40 32 39.295 32 36.575C32 33.8539 35.6854 33.1739 40 33.1739C44.3386 33.1739 48 33.8789 48 36.599C48 39.32 44.3146 40 40 40Z" fill="white"/>
</g>
<defs>
<filter id="filter0_d_207_102" x="0" y="0" width="80" height="80" filterUnits="userSpaceOnUse" color-interpolation-filters="sRGB">
<feFlood flood-opacity="0" result="BackgroundImageFix"/>
<feColorMatrix in="SourceAlpha" type="matrix" values="0 0 0 0 0 0 0 0 0 0 0 0 0 0 0 0 0 0 127 0" result="hardAlpha"/>
<feOffset dy="10"/>
<feGaussianBlur stdDeviation="10"/>
<feColorMatrix type="matrix" values="0 0 0 0 0 0 0 0 0 0 0 0 0 0 0 0 0 0 0.1 0"/>
<feBlend mode="normal" in2="BackgroundImageFix" result="effect1_dropShadow_207_102"/>
<feBlend mode="normal" in="SourceGraphic" in2="effect1_dropShadow_207_102" result="shape"/>
</filter>
</defs>
</svg>
